<svg height="512" viewBox="0 0 64 64" width="512" xmlns="http://www.w3.org/2000/svg"><g id="Fill_Outlines" data-name="Fill Outlines"><g id="Color"><g><path d="m7.54 6.893-3.093 8.25a22.7 22.7 0 0 0 -1.447 7.977 22.7 22.7 0 0 0 .309 3.735l4.855 29.131a6 6 0 0 0 5.919 5.014h35.834a6 6 0 0 0 5.919-5.014l4.855-29.131a22.7 22.7 0 0 0 .309-3.735 22.7 22.7 0 0 0 -1.447-7.977l-3.093-8.25a6 6 0 0 0 -5.618-3.893h-37.684a6 6 0 0 0 -5.618 3.893z" fill="#c4f236"/><path d="m41.72 53a28 28 0 0 1 -27.62-23.4l-1.791-10.745a22.716 22.716 0 0 1 1.138-11.712l1.553-4.143h-1.842a6 6 0 0 0 -5.618 3.893l-3.093 8.25a22.716 22.716 0 0 0 -1.138 11.712l4.855 29.131a6 6 0 0 0 5.919 5.014h35.834a6 6 0 0 0 5.919-5.014l.5-2.986z" fill="#a1d51c"/><path d="m60.924 24.953-56.278 9.923 1.154 6.905 53.993-9.52.9-5.406q.156-.946.231-1.902z" fill="#a1d51c"/><path d="m44 22a37.953 37.953 0 0 0 -24 0l-4-7 .79-.346a37.948 37.948 0 0 1 30.42 0l.79.346z" fill="#aae1f9"/><path d="m56.573 51.562-50.634-8.928 1.221 7.324 47.7 8.41a5.968 5.968 0 0 0 .979-2.382z" fill="#f9e109"/><path d="m60.133 30.2.558-3.346a22.7 22.7 0 0 0 .309-3.734c0-.06-.008-.119-.008-.179l-56.67 9.993 1.151 6.905z" fill="#f9e109"/><path d="m47.084 16.6.916-1.6-.79-.346a37.948 37.948 0 0 0 -30.42 0l-.79.346.916 1.6a37.947 37.947 0 0 1 30.168 0z" fill="#57b7eb"/><g fill="#fcbc04"><path d="m9.771 43.31-3.832-.676 1.221 7.324 47.7 8.41a5.966 5.966 0 0 0 .973-2.358l-38.362-6.763a10.493 10.493 0 0 1 -7.7-5.937z"/><path d="m8.162 32.257-3.84.677 1.151 6.905 54.66-9.639.424-2.546-45.19 7.968a6.931 6.931 0 0 1 -7.205-3.365z"/></g></g></g><g id="Outlines_copy" data-name="Outlines copy"><g fill="#39519d"><path d="m60.49 14.792-3.09-8.25a7.03 7.03 0 0 0 -6.558-4.542h-37.684a7.03 7.03 0 0 0 -6.558 4.542l-3.09 8.25a23.646 23.646 0 0 0 -1.51 8.328 1 1 0 0 0 2 0 21.638 21.638 0 0 1 1.383-7.626l3.094-8.25a5.022 5.022 0 0 1 4.681-3.244h37.684a5.022 5.022 0 0 1 4.681 3.244l3.094 8.25a21.626 21.626 0 0 1 1.338 6.615l-5.1.9-3.938.7-3.937.694-3.936.694-7.877 1.389-7.887 1.384-7.88 1.389-14.257 2.514-.843-5.083a1 1 0 1 0 -1.972.329l4.85 29.132a6.978 6.978 0 0 0 6.905 5.849h35.834a6.978 6.978 0 0 0 6.905-5.849l1.678-10.046a1 1 0 0 0 -1.973-.329l-.775 4.624-4.275-.754-7.877-1.387-7.879-1.389-7.879-1.389-3.937-.694-7.879-1.387-9.217-1.628-.187-1.12 13.569-2.393a1 1 0 0 0 -.347-1.97l-13.55 2.39-.822-4.933 1.474-.259.173.984a1 1 0 0 0 .981.829 1.043 1.043 0 0 0 .175-.015 1 1 0 0 0 .811-1.158l-.174-.985 1.97-.347.347 1.969a1 1 0 0 0 .984.827 1.031 1.031 0 0 0 .174-.015 1 1 0 0 0 .812-1.158l-.347-1.97 1.969-.348.174.985a1 1 0 0 0 .983.826 1.043 1.043 0 0 0 .175-.015 1 1 0 0 0 .811-1.159l-.173-.984 1.969-.347.348 1.97a1 1 0 0 0 .984.826 1.061 1.061 0 0 0 .175-.015 1 1 0 0 0 .811-1.159l-.348-1.97 1.969-.347.174.985a1 1 0 0 0 .984.826 1.052 1.052 0 0 0 .175-.015 1 1 0 0 0 .811-1.159l-.174-.984 1.97-.347.347 1.969a1 1 0 0 0 .984.827.95.95 0 0 0 .175-.016 1 1 0 0 0 .811-1.158l-.347-1.97 1.969-.347.174.985a1 1 0 0 0 .984.826 1.052 1.052 0 0 0 .175-.015 1 1 0 0 0 .811-1.159l-.174-.984 1.969-.347.348 1.969a1 1 0 0 0 .984.826.944.944 0 0 0 .174-.015 1 1 0 0 0 .811-1.158l-.347-1.97 1.969-.347.174.985a1 1 0 0 0 .984.826 1.043 1.043 0 0 0 .175-.015 1 1 0 0 0 .811-1.159l-.174-.984 1.97-.348.347 1.97a1 1 0 0 0 .984.826 1.043 1.043 0 0 0 .175-.015 1 1 0 0 0 .811-1.159l-.347-1.969 1.969-.347.174.984a1 1 0 0 0 .984.827.939.939 0 0 0 .174-.016 1 1 0 0 0 .811-1.158l-.173-.985 1.969-.347.348 1.97a1 1 0 0 0 .983.826 1.043 1.043 0 0 0 .175-.015 1 1 0 0 0 .811-1.159l-.344-1.971 1.97-.347.173.984a1 1 0 0 0 .984.826.93.93 0 0 0 .174-.015 1 1 0 0 0 .812-1.158l-.174-.985 3.772-.665a21.968 21.968 0 0 1 -.253 2.551l-.442 2.649-35.48 6.26a1 1 0 0 0 .173 1.985.947.947 0 0 0 .174-.016l34.784-6.133-1.732 10.4a1 1 0 0 0 .818 1.141 1.053 1.053 0 0 0 .166.014 1 1 0 0 0 .985-.836l2.523-15.136a23.712 23.712 0 0 0 -1.184-12.227zm-49.737 29.708-.347 1.969a1 1 0 0 0 .811 1.159 1.043 1.043 0 0 0 .175.015 1 1 0 0 0 .983-.826l.348-1.97 1.969.347-.173.985a1 1 0 0 0 .811 1.158.947.947 0 0 0 .174.016 1 1 0 0 0 .984-.827l.174-.984 1.969.347-.347 1.969a1 1 0 0 0 .811 1.159 1.043 1.043 0 0 0 .175.015 1 1 0 0 0 .984-.826l.347-1.97 1.97.347-.174.985a1 1 0 0 0 .811 1.159 1.043 1.043 0 0 0 .175.015 1 1 0 0 0 .984-.826l.174-.985 1.969.347-.347 1.97a1 1 0 0 0 .811 1.158.944.944 0 0 0 .174.015 1 1 0 0 0 .984-.826l.348-1.97 1.969.348-.174.984a1 1 0 0 0 .811 1.159 1.052 1.052 0 0 0 .175.015 1 1 0 0 0 .984-.826l.174-.985 1.969.347-.347 1.97a1 1 0 0 0 .811 1.158.95.95 0 0 0 .175.016 1 1 0 0 0 .984-.827l.347-1.969 1.97.347-.174.984a1 1 0 0 0 .811 1.159 1.052 1.052 0 0 0 .175.015 1 1 0 0 0 .984-.826l.174-.985 1.969.347-.348 1.97a1 1 0 0 0 .811 1.159 1.061 1.061 0 0 0 .175.015 1 1 0 0 0 .984-.826l.348-1.97 1.969.347-.173.984a1 1 0 0 0 .811 1.159 1.043 1.043 0 0 0 .175.015 1 1 0 0 0 .981-.827l.174-.985 1.969.348-.347 1.97a1 1 0 0 0 .812 1.158 1.031 1.031 0 0 0 .174.015 1 1 0 0 0 .984-.827l.347-1.969 3.309.583-.575 3.447a4.983 4.983 0 0 1 -4.93 4.178h-35.834a4.983 4.983 0 0 1 -4.932-4.178l-.772-4.634 39.5 6.966a1.043 1.043 0 0 0 .175.015 1 1 0 0 0 .173-1.985l-40.197-7.084-.872-5.23z"/><path d="m20.316 22.949a37.172 37.172 0 0 1 23.368 0 1.019 1.019 0 0 0 .316.051 1 1 0 0 0 .868-.5l4-7a1 1 0 0 0 -.467-1.412l-.79-.346a39.054 39.054 0 0 0 -31.222 0l-.79.346a1 1 0 0 0 -.467 1.412l4 7a1 1 0 0 0 1.184.449zm26.263-7.478-3.045 5.329a38.94 38.94 0 0 0 -9.845-1.672l2.168-3.613a1 1 0 0 0 -1.714-1.03l-2.762 4.6a39 39 0 0 0 -10.915 1.715l-3.045-5.329a37.052 37.052 0 0 1 29.158 0z"/><path d="m31 40v3a1 1 0 0 0 2 0v-3a1 1 0 0 0 -2 0z"/></g></g></g></svg>